<svg width="58" height="18" viewBox="0 0 58 18" fill="none" xmlns="http://www.w3.org/2000/svg">
<path d="M3.272 17H6.296L9.008 3.032H14.24L14.792 0.271999H1.304L0.752 3.032H5.984L3.272 17ZM19.9252 4.928C18.6772 4.928 17.2372 5.624 16.4692 7.04L16.8532 5.168H13.9492L11.6452 17H14.5252L15.6532 11.168C16.0852 8.936 17.2612 7.736 19.0852 7.736C19.5892 7.736 20.0212 7.808 20.3812 8.072L22.1572 5.648C21.4612 5.168 20.7892 4.928 19.9252 4.928ZM31.8007 12.152C31.9927 11.504 32.2087 10.328 32.2087 9.512C32.2087 6.896 30.7927 4.928 27.6727 4.928C23.6647 4.928 20.8807 8.384 20.8807 12.488C20.8807 15.104 22.2727 17.24 25.7527 17.24C27.6727 17.24 29.3287 16.616 30.9127 15.176L29.1847 13.256C28.2007 14.192 27.1447 14.624 26.0167 14.624C24.3847 14.624 23.6407 13.88 23.6407 12.584C23.6407 12.44 23.6407 12.296 23.6647 12.152H31.8007ZM27.4567 7.328C28.8007 7.328 29.5927 8.096 29.5927 9.176C29.5927 9.44 29.5447 9.752 29.4247 10.064H24.0967C24.4807 8.816 25.5127 7.328 27.4567 7.328ZM36.2786 17H38.6546L45.7826 5.168H42.6146L38.1266 13.256L36.8546 5.168H33.7586L36.2786 17ZM54.4841 5.168L54.2201 6.464C53.6441 5.576 52.4201 4.928 51.0041 4.928C47.1881 4.928 44.8121 8.744 44.8121 12.704C44.8121 15.392 46.1801 17.24 48.8921 17.24C50.0921 17.24 51.4361 16.856 52.4681 15.632L52.2041 17H55.0841L57.3881 5.168H54.4841ZM49.8281 14.576C48.3401 14.576 47.6681 13.808 47.6681 12.44C47.6681 9.968 49.0361 7.544 51.4841 7.544C53.0921 7.544 53.7641 8.504 53.7641 9.872C53.7641 12.296 52.3001 14.576 49.8281 14.576Z" fill="white"/>
</svg>
